<svg width="27" height="33" viewBox="0 0 27 33" fill="none" xmlns="http://www.w3.org/2000/svg">
<path d="M22.6957 17.5819C22.7276 15.0899 24.0587 12.7319 26.1704 11.4267C24.8382 9.51391 22.607 8.30114 20.2855 8.22811C17.8096 7.96682 15.4092 9.7177 14.1475 9.7177C12.8614 9.7177 10.9187 8.25406 8.82687 8.29733C6.10021 8.3859 3.55828 9.9445 2.2317 12.3412C-0.619916 17.305 1.50713 24.6001 4.23875 28.6125C5.60543 30.5772 7.20269 32.7719 9.29267 32.694C11.3378 32.6087 12.1017 31.3829 14.5704 31.3829C17.0162 31.3829 17.7328 32.694 19.8652 32.6445C22.0598 32.6087 23.4424 30.6711 24.7612 28.6877C25.7431 27.2878 26.4987 25.7405 27 24.1033C24.421 23.0066 22.6987 20.3972 22.6957 17.5819Z" fill="#B2B2B2"/>
<path d="M18.668 5.58939C19.8645 4.1452 20.454 2.28893 20.3113 0.414795C18.4832 0.607838 16.7945 1.48626 15.5818 2.87505C14.3959 4.23196 13.7788 6.05557 13.8955 7.85807C15.7242 7.877 17.522 7.02239 18.668 5.58939Z" fill="#B2B2B2"/>
</svg>
