<svg width="27" height="30" viewBox="0 0 27 30" fill="none" xmlns="http://www.w3.org/2000/svg">
<path d="M0.588847 29.1729L14.4883 14.6785L0.600491 0.210205C0.22955 0.435461 0 0.957014 0 1.63972V27.7572C0.0049749 28.4399 0.226224 28.9233 0.588847 29.1729Z" fill="#B2B2B2"/>
<path d="M14.986 14.2787L19.1263 9.9607L2.26592 0.319778C1.98201 0.147757 1.65953 0.0568947 1.33109 0.0563965L14.9844 14.2769L14.986 14.2787Z" fill="#B2B2B2"/>
<path d="M14.9866 15.0813L1.29004 29.3642C1.63381 29.3702 1.97242 29.2766 2.26812 29.0939L19.1617 19.427L14.9866 15.0813Z" fill="#B2B2B2"/>
<path d="M25.2344 13.4593L19.6237 10.2451L15.3704 14.6809L19.6553 19.1444L25.2327 15.9389C26.4187 15.2579 26.4187 14.1368 25.2344 13.4593Z" fill="#B2B2B2"/>
</svg>
